<svg id="Capa_1" enable-background="new 0 0 499.842 499.842" height="512" viewBox="0 0 499.842 499.842" width="512" xmlns="http://www.w3.org/2000/svg"><g><path d="m305.338 483.743-42.757-31.128c-5.405-3.935-8.631-10.275-8.631-16.96v-88.763c0-.47-.049-.928-.131-1.374.083-.576.131-1.168.131-1.776v-138.613h-41.172v230.525c0 6.686-3.227 13.026-8.632 16.96l-42.757 31.129c-3.153 2.296-4.435 6.102-3.265 9.695 1.247 3.831 5.055 6.404 9.476 6.404h131.529c4.421 0 8.229-2.573 9.476-6.404 1.168-3.593-.114-7.399-3.267-9.695z" fill="#f7f9f5"/><path d="m305.338 483.743-42.757-31.128c-5.405-3.935-8.631-10.275-8.631-16.96v-88.763c0-.47-.049-.928-.131-1.374.083-.576.131-1.168.131-1.776v-138.613h-30v138.612c0 .607-.049 1.199-.131 1.776.083.446.131.904.131 1.374v88.763c0 6.686 3.227 13.026 8.631 16.96l42.757 31.128c3.154 2.296 4.436 6.102 3.266 9.696-1.247 3.831-5.055 6.404-9.476 6.404h30c4.421 0 8.229-2.573 9.476-6.404 1.169-3.593-.113-7.399-3.266-9.695z" fill="#eceae6"/><g><g><path d="m374.052 48.682c0 26.886-1.796 48.682-28.682 48.682s-48.682-21.796-48.682-48.682 21.796-48.682 48.682-48.682 28.682 21.796 28.682 48.682z" fill="#fee903"/></g></g><g><g><path d="m345.37 0c-5.236 0-10.274.836-15 2.366 19.544 6.326 33.682 24.666 33.682 46.316 0 21.651-14.138 39.991-33.682 46.316 4.726 1.53 9.764 2.366 15 2.366 26.886 0 48.682-21.796 48.682-48.682s-21.796-48.682-48.682-48.682z" fill="#f4d902"/></g></g><g><g><path d="m356.936 76.863v-26.257c0-11.467-9.296-20.763-20.763-20.763h-209.62c-11.467 0-20.763 9.296-20.763 20.763v26.257l121.285 20z" fill="#f7f9f5"/></g></g><g><g><path d="m326.936 50.606v26.257l15.051 10 14.949-10v-26.257c0-11.467-9.296-20.763-20.763-20.763h-30c11.468 0 20.763 9.296 20.763 20.763z" fill="#eceae6"/></g></g><g><g><path d="m105.79 76.886v25.355c0 18.528 6.742 36.422 18.969 50.344l94.123 77.172c8.091 9.213 22.438 9.213 30.529 0l88.557-70.834c12.226-13.921 18.968-31.816 18.968-50.343v-31.694z" fill="#fefbdd"/></g></g><g><g><path d="m326.936 76.886v31.694c0 18.528-6.742 36.422-18.968 50.343l-88.557 70.834c-.084.096-.179.176-.265.27 8.134 8.927 22.258 8.847 30.265-.27l88.557-70.834c12.226-13.921 18.968-31.816 18.968-50.343v-31.694z" fill="#ffefd2"/></g></g><g><g><g><path d="m205.495 170.176c-1.919 0-3.839-.732-5.303-2.197-27.619-27.619-32.801-54.823-33.008-55.968-.737-4.076 1.969-7.978 6.045-8.715 4.069-.736 7.96 1.957 8.71 6.018.066.345 4.818 24.018 28.859 48.059 2.929 2.929 2.929 7.678 0 10.606-1.464 1.465-3.384 2.197-5.303 2.197z" fill="#c4573a"/></g></g><g><g><circle cx="224.357" cy="174.072" fill="#fd5426" r="23.769"/></g></g><g><g><path d="m224.357 150.303c-5.689 0-10.909 2.001-15 5.334 5.35 4.358 8.769 10.996 8.769 18.435s-3.419 14.077-8.769 18.435c4.091 3.333 9.311 5.334 15 5.334 13.127 0 23.769-10.642 23.769-23.769s-10.642-23.769-23.769-23.769z" fill="#ef4424"/></g></g></g></g></svg>